<?xml version="1.0" encoding="UTF-8" standalone="no"?>
<!DOCTYPE svg PUBLIC "-//W3C//DTD SVG 1.1//EN"
 "http://www.w3.org/Graphics/SVG/1.1/DTD/svg11.dtd">
<!-- Generated by graphviz version 12.2.1 (20241206.2353)
 -->
<!-- Title: chat_architecture Pages: 1 -->
<svg width="1466pt" height="1078pt"
 viewBox="0.00 0.00 1466.00 1077.81" xmlns="http://www.w3.org/2000/svg" xmlns:xlink="http://www.w3.org/1999/xlink">
<g id="graph0" class="graph" transform="scale(1 1) rotate(0) translate(4 1073.81)">
<title>chat_architecture</title>
<polygon fill="white" stroke="none" points="-4,4 -4,-1073.81 1462,-1073.81 1462,4 -4,4"/>
<g id="clust1" class="cluster">
<title>cluster_user</title>
<polygon fill="none" stroke="black" stroke-dasharray="5,2" points="874,-897.81 874,-1061.81 944,-1061.81 944,-897.81 874,-897.81"/>
<text text-anchor="middle" x="909" y="-1044.51" font-family="Times,serif" font-size="14.00">User</text>
</g>
<g id="clust3" class="cluster">
<title>cluster_frontend</title>
<polygon fill="none" stroke="black" stroke-dasharray="5,2" points="829,-739.36 829,-863.31 989,-863.31 989,-739.36 829,-739.36"/>
<text text-anchor="middle" x="909" y="-846.01" font-family="Times,serif" font-size="14.00">Frontend (BIG&#45;AGI)</text>
<text text-anchor="middle" x="909" y="-829.51" font-family="Times,serif" font-size="14.00">(out of scope)</text>
</g>
<g id="clust4" class="cluster">
<title>cluster_backend</title>
<polygon fill="none" stroke="black" stroke-dasharray="5,2" points="450,-302.46 450,-704.86 1324,-704.86 1324,-302.46 450,-302.46"/>
<text text-anchor="middle" x="887" y="-687.56" font-family="Times,serif" font-size="14.00">MCP Host (Backend)</text>
<text text-anchor="middle" x="887" y="-671.06" font-family="Times,serif" font-size="14.00">host/openaiserver</text>
</g>
<g id="clust5" class="cluster">
<title>cluster_mcp</title>
<polygon fill="none" stroke="black" stroke-dasharray="5,2" points="458,-310.46 458,-424.96 628,-424.96 628,-310.46 458,-310.46"/>
<text text-anchor="middle" x="543" y="-407.66" font-family="Times,serif" font-size="14.00">MCP Client</text>
</g>
<g id="clust6" class="cluster">
<title>cluster_gcp</title>
<polygon fill="none" stroke="black" stroke-dasharray="5,2" points="1290,-132 1290,-269.96 1450,-269.96 1450,-132 1290,-132"/>
<text text-anchor="middle" x="1370" y="-252.66" font-family="Times,serif" font-size="14.00">GCP PRIVATE PROJECT</text>
<text text-anchor="middle" x="1370" y="-236.16" font-family="Times,serif" font-size="14.00">TENANT</text>
</g>
<g id="clust7" class="cluster">
<title>cluster_environment</title>
<polygon fill="none" stroke="black" stroke-dasharray="5,2" points="8,-8 8,-246.46 1209,-246.46 1209,-8 8,-8"/>
<text text-anchor="middle" x="608.5" y="-229.16" font-family="Times,serif" font-size="14.00">ENVIRONMENT</text>
</g>
<g id="clust8" class="cluster">
<title>cluster_filesystem_tools</title>
<polygon fill="none" stroke="black" stroke-dasharray="5,2" points="16,-16 16,-97.5 669,-97.5 669,-16 16,-16"/>
<text text-anchor="middle" x="342.5" y="-80.2" font-family="Times,serif" font-size="14.00">Filesystem Tools</text>
</g>
<g id="clust9" class="cluster">
<title>cluster_system_tools</title>
<polygon fill="none" stroke="black" stroke-dasharray="5,2" points="677,-16 677,-97.5 929,-97.5 929,-16 677,-16"/>
<text text-anchor="middle" x="803" y="-80.2" font-family="Times,serif" font-size="14.00">System Tools</text>
</g>
<g id="clust10" class="cluster">
<title>cluster_ai_tools</title>
<polygon fill="none" stroke="black" stroke-dasharray="5,2" points="937,-16 937,-97.5 1049,-97.5 1049,-16 937,-16"/>
<text text-anchor="middle" x="993" y="-80.2" font-family="Times,serif" font-size="14.00">AI/ML Tools</text>
</g>
<g id="clust11" class="cluster">
<title>cluster_data_tools</title>
<polygon fill="none" stroke="black" stroke-dasharray="5,2" points="1057,-16 1057,-97.5 1201,-97.5 1201,-16 1057,-16"/>
<text text-anchor="middle" x="1129" y="-80.2" font-family="Times,serif" font-size="14.00">Data Tools</text>
</g>
<!-- user -->
<g id="node1" class="node">
<title>user</title>
<path fill="lightblue" stroke="none" d="M924,-1029.31C924,-1029.31 894,-1029.31 894,-1029.31 888,-1029.31 882,-1023.31 882,-1017.31 882,-1017.31 882,-998.06 882,-998.06 882,-992.06 888,-986.06 894,-986.06 894,-986.06 924,-986.06 924,-986.06 930,-986.06 936,-992.06 936,-998.06 936,-998.06 936,-1017.31 936,-1017.31 936,-1023.31 930,-1029.31 924,-1029.31"/>
<text text-anchor="middle" x="909" y="-1012.01" font-family="Times,serif" font-size="14.00">Chat</text>
<text text-anchor="middle" x="909" y="-995.51" font-family="Times,serif" font-size="14.00">👤</text>
</g>
<!-- ui -->
<g id="node2" class="node">
<title>ui</title>
<g id="a_node2"><a xlink:title="Web/Mobile App">
<path fill="lightblue" stroke="black" d="M924,-949.06C924,-949.06 894,-949.06 894,-949.06 888,-949.06 882,-943.06 882,-937.06 882,-937.06 882,-917.81 882,-917.81 882,-911.81 888,-905.81 894,-905.81 894,-905.81 924,-905.81 924,-905.81 930,-905.81 936,-911.81 936,-917.81 936,-917.81 936,-937.06 936,-937.06 936,-943.06 930,-949.06 924,-949.06"/>
<text text-anchor="middle" x="909" y="-931.76" font-family="Times,serif" font-size="14.00">UI</text>
<text text-anchor="middle" x="909" y="-915.26" font-family="Times,serif" font-size="14.00">💻</text>
</a>
</g>
</g>
<!-- user&#45;&gt;ui -->
<g id="edge1" class="edge">
<title>user&#45;&gt;ui</title>
<path fill="none" stroke="black" d="M909,-986.13C909,-978.35 909,-969.29 909,-960.69"/>
<polygon fill="black" stroke="black" points="912.5,-960.92 909,-950.92 905.5,-960.92 912.5,-960.92"/>
</g>
<!-- frontend -->
<g id="node3" class="node">
<title>frontend</title>
<g id="a_node3"><a xlink:title="Handles user input and displays responses">
<path fill="lightyellow" stroke="black" d="M972.07,-789.02C972.07,-789.02 953.71,-806.13 953.71,-806.13 949.32,-810.22 938.93,-814.31 932.93,-814.31 932.93,-814.31 885.07,-814.31 885.07,-814.31 879.07,-814.31 868.68,-810.22 864.29,-806.13 864.29,-806.13 845.93,-789.02 845.93,-789.02 841.54,-784.93 841.54,-776.75 845.93,-772.66 845.93,-772.66 864.29,-755.54 864.29,-755.54 868.68,-751.45 879.07,-747.36 885.07,-747.36 885.07,-747.36 932.93,-747.36 932.93,-747.36 938.93,-747.36 949.32,-751.45 953.71,-755.54 953.71,-755.54 972.07,-772.66 972.07,-772.66 976.46,-776.75 976.46,-784.93 972.07,-789.02"/>
<text text-anchor="middle" x="909" y="-784.04" font-family="Times,serif" font-size="14.00">FRONTEND</text>
<text text-anchor="middle" x="909" y="-767.54" font-family="Times,serif" font-size="14.00">BIG&#45;AGI</text>
</a>
</g>
</g>
<!-- ui&#45;&gt;frontend -->
<g id="edge2" class="edge">
<title>ui&#45;&gt;frontend</title>
<path fill="none" stroke="black" d="M909,-905.41C909,-884.67 909,-852.33 909,-825.93"/>
<polygon fill="black" stroke="black" points="912.5,-826.17 909,-816.17 905.5,-826.17 912.5,-826.17"/>
<text text-anchor="middle" x="925.88" y="-874.51" font-family="Times,serif" font-size="14.00">HTTP</text>
</g>
<!-- api_gateway -->
<g id="node4" class="node">
<title>api_gateway</title>
<g id="a_node4"><a xlink:title="Receives requests from frontend">
<path fill="lightgreen" stroke="black" d="M943.62,-655.86C943.62,-655.86 874.38,-655.86 874.38,-655.86 868.38,-655.86 862.38,-649.86 862.38,-643.86 862.38,-643.86 862.38,-626.86 862.38,-626.86 862.38,-620.86 868.38,-614.86 874.38,-614.86 874.38,-614.86 943.62,-614.86 943.62,-614.86 949.62,-614.86 955.62,-620.86 955.62,-626.86 955.62,-626.86 955.62,-643.86 955.62,-643.86 955.62,-649.86 949.62,-655.86 943.62,-655.86"/>
<text text-anchor="middle" x="909" y="-638.56" font-family="Times,serif" font-size="14.00">API Gateway</text>
<text text-anchor="middle" x="909" y="-622.06" font-family="Times,serif" font-size="14.00">(api_gateway)</text>
</a>
</g>
</g>
<!-- frontend&#45;&gt;api_gateway -->
<g id="edge3" class="edge">
<title>frontend&#45;&gt;api_gateway</title>
<path fill="none" stroke="black" d="M909,-746.92C909,-723.11 909,-691.13 909,-667.69"/>
<polygon fill="black" stroke="black" points="912.5,-667.81 909,-657.81 905.5,-667.81 912.5,-667.81"/>
<text text-anchor="middle" x="1002.38" y="-716.06" font-family="Times,serif" font-size="14.00">HTTP POST /v1/chat/completions</text>
</g>
<!-- chat_handler -->
<g id="node5" class="node">
<title>chat_handler</title>
<g id="a_node5"><a xlink:title="Manages chat sessions, history, and orchestrates interactions">
<path fill="lightyellow" stroke="black" d="M972.41,-540.5C972.41,-540.5 951.53,-568.27 951.53,-568.27 947.92,-573.07 938.31,-577.86 932.31,-577.86 932.31,-577.86 885.69,-577.86 885.69,-577.86 879.69,-577.86 870.08,-573.07 866.47,-568.27 866.47,-568.27 845.59,-540.5 845.59,-540.5 841.98,-535.71 841.98,-526.12 845.59,-521.32 845.59,-521.32 866.47,-493.55 866.47,-493.55 870.08,-488.76 879.69,-483.96 885.69,-483.96 885.69,-483.96 932.31,-483.96 932.31,-483.96 938.31,-483.96 947.92,-488.76 951.53,-493.55 951.53,-493.55 972.41,-521.32 972.41,-521.32 976.02,-526.12 976.02,-535.71 972.41,-540.5"/>
<text text-anchor="middle" x="909" y="-542.36" font-family="Times,serif" font-size="14.00">Chat Session</text>
<text text-anchor="middle" x="909" y="-525.86" font-family="Times,serif" font-size="14.00">Handler</text>
<text text-anchor="middle" x="909" y="-509.36" font-family="Times,serif" font-size="14.00">(chat.go)</text>
</a>
</g>
</g>
<!-- api_gateway&#45;&gt;chat_handler -->
<g id="edge4" class="edge">
<title>api_gateway&#45;&gt;chat_handler</title>
<path fill="none" stroke="black" d="M909,-614.61C909,-607.33 909,-598.67 909,-589.74"/>
<polygon fill="black" stroke="black" points="912.5,-589.87 909,-579.87 905.5,-589.87 912.5,-589.87"/>
</g>
<!-- vertex_sdk -->
<g id="node6" class="node">
<title>vertex_sdk</title>
<g id="a_node6"><a xlink:title="Connects to and interacts with the LLM">
<path fill="lightgreen" stroke="black" d="M1303.62,-375.96C1303.62,-375.96 1210.38,-375.96 1210.38,-375.96 1204.38,-375.96 1198.38,-369.96 1198.38,-363.96 1198.38,-363.96 1198.38,-346.96 1198.38,-346.96 1198.38,-340.96 1204.38,-334.96 1210.38,-334.96 1210.38,-334.96 1303.62,-334.96 1303.62,-334.96 1309.62,-334.96 1315.62,-340.96 1315.62,-346.96 1315.62,-346.96 1315.62,-363.96 1315.62,-363.96 1315.62,-369.96 1309.62,-375.96 1303.62,-375.96"/>
<text text-anchor="middle" x="1257" y="-358.66" font-family="Times,serif" font-size="14.00">VERTEX AI SDK</text>
<text text-anchor="middle" x="1257" y="-342.16" font-family="Times,serif" font-size="14.00">(vertex.go)</text>
</a>
</g>
</g>
<!-- chat_handler&#45;&gt;vertex_sdk -->
<g id="edge5" class="edge">
<title>chat_handler&#45;&gt;vertex_sdk</title>
<path fill="none" stroke="black" d="M973.75,-522.32C1024.46,-514.19 1095.32,-497.87 1150,-465.96 1185.22,-445.42 1216.65,-410.18 1236.19,-385.23"/>
<polygon fill="black" stroke="black" points="1238.86,-387.49 1242.16,-377.43 1233.3,-383.24 1238.86,-387.49"/>
</g>
<!-- db -->
<g id="node7" class="node">
<title>db</title>
<g id="a_node7"><a xlink:title="Stores chat history and other data">
<path fill="lightgrey" stroke="black" d="M759.88,-378.53C759.88,-381.35 732.59,-383.65 699,-383.65 665.41,-383.65 638.12,-381.35 638.12,-378.53 638.12,-378.53 638.12,-332.4 638.12,-332.4 638.12,-329.57 665.41,-327.28 699,-327.28 732.59,-327.28 759.88,-329.57 759.88,-332.4 759.88,-332.4 759.88,-378.53 759.88,-378.53"/>
<path fill="none" stroke="black" d="M759.88,-378.53C759.88,-375.7 732.59,-373.4 699,-373.4 665.41,-373.4 638.12,-375.7 638.12,-378.53"/>
<text text-anchor="middle" x="699" y="-358.66" font-family="Times,serif" font-size="14.00">Data Storage</text>
<text text-anchor="middle" x="699" y="-342.16" font-family="Times,serif" font-size="14.00">(Not Implemented)</text>
</a>
</g>
</g>
<!-- chat_handler&#45;&gt;db -->
<g id="edge11" class="edge">
<title>chat_handler&#45;&gt;db</title>
<path fill="none" stroke="black" stroke-dasharray="5,2" d="M854.41,-509.29C830.43,-498.61 802.87,-484 781.25,-465.96 756.81,-445.57 735.44,-416.56 720.61,-393.52"/>
<polygon fill="black" stroke="black" points="723.75,-391.95 715.47,-385.34 717.82,-395.67 723.75,-391.95"/>
<text text-anchor="middle" x="817.62" y="-444.41" font-family="Times,serif" font-size="14.00">Store History</text>
</g>
<!-- error_handler -->
<g id="node8" class="node">
<title>error_handler</title>
<g id="a_node8"><a xlink:title="Handles errors and exceptions">
<polygon fill="lightgrey" stroke="black" points="899.88,-375.96 778.12,-375.96 778.12,-371.96 774.12,-371.96 774.12,-367.96 778.12,-367.96 778.12,-342.96 774.12,-342.96 774.12,-338.96 778.12,-338.96 778.12,-334.96 899.88,-334.96 899.88,-375.96"/>
<polyline fill="none" stroke="black" points="778.12,-371.96 782.12,-371.96 782.12,-367.96 778.12,-367.96"/>
<polyline fill="none" stroke="black" points="778.12,-342.96 782.12,-342.96 782.12,-338.96 778.12,-338.96"/>
<text text-anchor="middle" x="839" y="-358.66" font-family="Times,serif" font-size="14.00">Error Handler</text>
<text text-anchor="middle" x="839" y="-342.16" font-family="Times,serif" font-size="14.00">(Not Implemented)</text>
</a>
</g>
</g>
<!-- chat_handler&#45;&gt;error_handler -->
<g id="edge12" class="edge">
<title>chat_handler&#45;&gt;error_handler</title>
<path fill="none" stroke="black" stroke-dasharray="5,2" d="M879.17,-483.51C876.01,-477.72 873.04,-471.78 870.5,-465.96 859.38,-440.45 850.97,-409.9 845.65,-387.56"/>
<polygon fill="black" stroke="black" points="849.07,-386.82 843.42,-377.86 842.25,-388.39 849.07,-386.82"/>
<text text-anchor="middle" x="908.75" y="-444.41" font-family="Times,serif" font-size="14.00">Handle Errors</text>
</g>
<!-- monitoring -->
<g id="node9" class="node">
<title>monitoring</title>
<g id="a_node9"><a xlink:title="Collects metrics and logs">
<polygon fill="lightgrey" stroke="black" points="1039.88,-375.96 918.12,-375.96 918.12,-371.96 914.12,-371.96 914.12,-367.96 918.12,-367.96 918.12,-342.96 914.12,-342.96 914.12,-338.96 918.12,-338.96 918.12,-334.96 1039.88,-334.96 1039.88,-375.96"/>
<polyline fill="none" stroke="black" points="918.12,-371.96 922.12,-371.96 922.12,-367.96 918.12,-367.96"/>
<polyline fill="none" stroke="black" points="918.12,-342.96 922.12,-342.96 922.12,-338.96 918.12,-338.96"/>
<text text-anchor="middle" x="979" y="-358.66" font-family="Times,serif" font-size="14.00">Monitoring</text>
<text text-anchor="middle" x="979" y="-342.16" font-family="Times,serif" font-size="14.00">(Not Implemented)</text>
</a>
</g>
</g>
<!-- chat_handler&#45;&gt;monitoring -->
<g id="edge13" class="edge">
<title>chat_handler&#45;&gt;monitoring</title>
<path fill="none" stroke="black" stroke-dasharray="5,2" d="M938.41,-483.48C941.53,-477.69 944.48,-471.77 947,-465.96 958.11,-440.41 966.68,-409.86 972.14,-387.54"/>
<polygon fill="black" stroke="black" points="975.54,-388.38 974.43,-377.84 968.72,-386.77 975.54,-388.38"/>
<text text-anchor="middle" x="1001.46" y="-444.41" font-family="Times,serif" font-size="14.00">Collect Metrics</text>
</g>
<!-- logging -->
<g id="node10" class="node">
<title>logging</title>
<g id="a_node10"><a xlink:title="Logs application events">
<polygon fill="lightgrey" stroke="black" points="1179.88,-375.96 1058.12,-375.96 1058.12,-371.96 1054.12,-371.96 1054.12,-367.96 1058.12,-367.96 1058.12,-342.96 1054.12,-342.96 1054.12,-338.96 1058.12,-338.96 1058.12,-334.96 1179.88,-334.96 1179.88,-375.96"/>
<polyline fill="none" stroke="black" points="1058.12,-371.96 1062.12,-371.96 1062.12,-367.96 1058.12,-367.96"/>
<polyline fill="none" stroke="black" points="1058.12,-342.96 1062.12,-342.96 1062.12,-338.96 1058.12,-338.96"/>
<text text-anchor="middle" x="1119" y="-358.66" font-family="Times,serif" font-size="14.00">Logging</text>
<text text-anchor="middle" x="1119" y="-342.16" font-family="Times,serif" font-size="14.00">(Not Implemented)</text>
</a>
</g>
</g>
<!-- chat_handler&#45;&gt;logging -->
<g id="edge14" class="edge">
<title>chat_handler&#45;&gt;logging</title>
<path fill="none" stroke="black" stroke-dasharray="5,2" d="M965.97,-512.08C992.91,-501.66 1024.3,-486.48 1048,-465.96 1073.52,-443.88 1093.38,-410.42 1105.53,-386.3"/>
<polygon fill="black" stroke="black" points="1108.51,-388.16 1109.74,-377.64 1102.22,-385.1 1108.51,-388.16"/>
<text text-anchor="middle" x="1111.42" y="-444.41" font-family="Times,serif" font-size="14.00">Collect Logs</text>
</g>
<!-- mcp_protocol -->
<g id="node11" class="node">
<title>mcp_protocol</title>
<g id="a_node11"><a xlink:title="Communicates with the external environment">
<path fill="lightgreen" stroke="black" d="M608.38,-392.46C608.38,-392.46 477.62,-392.46 477.62,-392.46 471.62,-392.46 465.62,-386.46 465.62,-380.46 465.62,-380.46 465.62,-330.46 465.62,-330.46 465.62,-324.46 471.62,-318.46 477.62,-318.46 477.62,-318.46 608.38,-318.46 608.38,-318.46 614.38,-318.46 620.38,-324.46 620.38,-330.46 620.38,-330.46 620.38,-380.46 620.38,-380.46 620.38,-386.46 614.38,-392.46 608.38,-392.46"/>
<text text-anchor="middle" x="543" y="-375.16" font-family="Times,serif" font-size="14.00">MCP</text>
<text text-anchor="middle" x="543" y="-358.66" font-family="Times,serif" font-size="14.00">JSON RPC</text>
<text text-anchor="middle" x="543" y="-342.16" font-family="Times,serif" font-size="14.00">SSE</text>
<text text-anchor="middle" x="543" y="-325.66" font-family="Times,serif" font-size="14.00">(function_client_mcp.go)</text>
</a>
</g>
</g>
<!-- chat_handler&#45;&gt;mcp_protocol -->
<g id="edge7" class="edge">
<title>chat_handler&#45;&gt;mcp_protocol</title>
<g id="a_edge7"><a xlink:title="Registers and calls specific functions">
<path fill="none" stroke="black" d="M843.99,-522.86C765.58,-513.26 639.58,-494 602,-465.96 581.32,-450.54 567.1,-425.67 557.8,-403.52"/>
<polygon fill="black" stroke="black" points="561.11,-402.36 554.19,-394.33 554.59,-404.92 561.11,-402.36"/>
</a>
</g>
<text text-anchor="middle" x="674" y="-452.66" font-family="Times,serif" font-size="14.00">REGISTER FUNCTIONS</text>
<text text-anchor="middle" x="674" y="-436.16" font-family="Times,serif" font-size="14.00">CALL FUNCTIONS</text>
</g>
<!-- llm -->
<g id="node12" class="node">
<title>llm</title>
<g id="a_node12"><a xlink:title="Large Language Model">
<ellipse fill="lightgrey" stroke="black" cx="1360" cy="-180.48" rx="40.48" ry="40.48"/>
<text text-anchor="middle" x="1360" y="-183.68" font-family="Times,serif" font-size="14.00">LLM</text>
<text text-anchor="middle" x="1360" y="-167.18" font-family="Times,serif" font-size="14.00">Gemini</text>
</a>
</g>
</g>
<!-- vertex_sdk&#45;&gt;llm -->
<g id="edge6" class="edge">
<title>vertex_sdk&#45;&gt;llm</title>
<path fill="none" stroke="black" d="M1268.82,-334.62C1284.61,-308.1 1313.04,-260.35 1333.97,-225.2"/>
<polygon fill="black" stroke="black" points="1336.77,-227.33 1338.88,-216.95 1330.76,-223.75 1336.77,-227.33"/>
<text text-anchor="middle" x="1318.46" y="-281.16" font-family="Times,serif" font-size="14.00">gRPC</text>
</g>
<!-- mcp_server -->
<g id="node13" class="node">
<title>mcp_server</title>
<g id="a_node13"><a xlink:title="Executes actions and reads resources">
<path fill="lightyellow" stroke="black" d="M590.67,-189.73C590.67,-189.73 578.3,-204.71 578.3,-204.71 574.48,-209.33 564.66,-213.96 558.66,-213.96 558.66,-213.96 527.34,-213.96 527.34,-213.96 521.34,-213.96 511.52,-209.33 507.7,-204.71 507.7,-204.71 495.33,-189.73 495.33,-189.73 491.5,-185.11 491.5,-175.86 495.33,-171.23 495.33,-171.23 507.7,-156.26 507.7,-156.26 511.52,-151.63 521.34,-147.01 527.34,-147.01 527.34,-147.01 558.66,-147.01 558.66,-147.01 564.66,-147.01 574.48,-151.63 578.3,-156.26 578.3,-156.26 590.67,-171.23 590.67,-171.23 594.5,-175.86 594.5,-185.11 590.67,-189.73"/>
<text text-anchor="middle" x="543" y="-183.68" font-family="Times,serif" font-size="14.00">MCP</text>
<text text-anchor="middle" x="543" y="-167.18" font-family="Times,serif" font-size="14.00">SERVER</text>
</a>
</g>
</g>
<!-- mcp_protocol&#45;&gt;mcp_server -->
<g id="edge8" class="edge">
<title>mcp_protocol&#45;&gt;mcp_server</title>
<path fill="none" stroke="black" d="M543,-318.2C543,-291.21 543,-254.23 543,-225.53"/>
<polygon fill="black" stroke="black" points="546.5,-225.71 543,-215.71 539.5,-225.71 546.5,-225.71"/>
<text text-anchor="middle" x="562.88" y="-281.16" font-family="Times,serif" font-size="14.00">STDIO</text>
</g>
<!-- mcp_server&#45;&gt;mcp_server -->
<g id="edge9" class="edge">
<title>mcp_server&#45;&gt;mcp_server</title>
<g id="a_edge9"><a xlink:title="Reads resources from the environment">
<path fill="none" stroke="black" d="M605.15,-185.73C611.94,-184.73 616.32,-182.98 616.32,-180.48 616.32,-177.99 611.94,-176.24 605.15,-175.23"/>
<polygon fill="black" stroke="black" points="604.9,-182.24 595.22,-186.54 605.47,-189.21 604.9,-182.24"/>
<polygon fill="black" stroke="black" points="605.47,-171.75 595.22,-174.42 604.9,-178.73 605.47,-171.75"/>
</a>
</g>
<text text-anchor="middle" x="655.32" y="-183.68" font-family="Times,serif" font-size="14.00">READ</text>
<text text-anchor="middle" x="655.32" y="-167.18" font-family="Times,serif" font-size="14.00">RESOURCES</text>
</g>
<!-- mcp_server&#45;&gt;mcp_server -->
<g id="edge10" class="edge">
<title>mcp_server&#45;&gt;mcp_server</title>
<g id="a_edge10"><a xlink:title="Executes actions in the environment">
<path fill="none" stroke="black" d="M601.25,-192.02C644.86,-195 694.32,-191.15 694.32,-180.48 694.32,-169.81 644.86,-165.97 601.25,-168.95"/>
<polygon fill="black" stroke="black" points="601.8,-188.55 591.54,-191.21 601.22,-195.53 601.8,-188.55"/>
<polygon fill="black" stroke="black" points="601.22,-165.44 591.54,-169.75 601.8,-172.41 601.22,-165.44"/>
</a>
</g>
<text text-anchor="middle" x="725.07" y="-183.68" font-family="Times,serif" font-size="14.00">EXECUTE</text>
<text text-anchor="middle" x="725.07" y="-167.18" font-family="Times,serif" font-size="14.00">ACTIONS</text>
</g>
<!-- ls_tool -->
<g id="node14" class="node">
<title>ls_tool</title>
<g id="a_node14"><a xlink:title="List directories">
<polygon fill="lightcoral" stroke="black" points="94.38,-65 23.62,-65 23.62,-61 19.63,-61 19.63,-57 23.62,-57 23.62,-32 19.62,-32 19.62,-28 23.62,-28 23.62,-24 94.38,-24 94.38,-65"/>
<polyline fill="none" stroke="black" points="23.62,-61 27.62,-61 27.62,-57 23.62,-57"/>
<polyline fill="none" stroke="black" points="23.62,-32 27.62,-32 27.62,-28 23.62,-28"/>
<text text-anchor="middle" x="59" y="-47.7" font-family="Times,serif" font-size="14.00">LS</text>
<text text-anchor="middle" x="59" y="-31.2" font-family="Times,serif" font-size="14.00">(tools/LS)</text>
</a>
</g>
</g>
<!-- mcp_server&#45;&gt;ls_tool -->
<g id="edge15" class="edge">
<title>mcp_server&#45;&gt;ls_tool</title>
<path fill="none" stroke="black" d="M492.5,-173.88C422.15,-165.52 290.94,-147.95 181.25,-122 146.2,-113.71 134.08,-117.31 104,-97.5 94.7,-91.38 86.2,-82.81 79.16,-74.4"/>
<polygon fill="black" stroke="black" points="81.99,-72.34 73.05,-66.64 76.49,-76.66 81.99,-72.34"/>
<text text-anchor="middle" x="199.62" y="-108.7" font-family="Times,serif" font-size="14.00">invoke</text>
</g>
<!-- view_tool -->
<g id="node15" class="node">
<title>view_tool</title>
<g id="a_node15"><a xlink:title="Read files">
<polygon fill="lightcoral" stroke="black" points="197.12,-65 112.88,-65 112.88,-61 108.88,-61 108.88,-57 112.88,-57 112.88,-32 108.88,-32 108.88,-28 112.88,-28 112.88,-24 197.12,-24 197.12,-65"/>
<polyline fill="none" stroke="black" points="112.88,-61 116.88,-61 116.88,-57 112.88,-57"/>
<polyline fill="none" stroke="black" points="112.88,-32 116.88,-32 116.88,-28 112.88,-28"/>
<text text-anchor="middle" x="155" y="-47.7" font-family="Times,serif" font-size="14.00">View</text>
<text text-anchor="middle" x="155" y="-31.2" font-family="Times,serif" font-size="14.00">(tools/View)</text>
</a>
</g>
</g>
<!-- mcp_server&#45;&gt;view_tool -->
<g id="edge16" class="edge">
<title>mcp_server&#45;&gt;view_tool</title>
<path fill="none" stroke="black" d="M490.27,-176.86C420.37,-171.22 295.46,-153.46 206,-97.5 195.79,-91.11 186.12,-82.28 177.99,-73.71"/>
<polygon fill="black" stroke="black" points="180.74,-71.52 171.44,-66.44 175.54,-76.21 180.74,-71.52"/>
<text text-anchor="middle" x="265.57" y="-108.7" font-family="Times,serif" font-size="14.00">invoke</text>
</g>
<!-- edit_tool -->
<g id="node16" class="node">
<title>edit_tool</title>
<g id="a_node16"><a xlink:title="Edit files">
<polygon fill="lightcoral" stroke="black" points="292.75,-65 215.25,-65 215.25,-61 211.25,-61 211.25,-57 215.25,-57 215.25,-32 211.25,-32 211.25,-28 215.25,-28 215.25,-24 292.75,-24 292.75,-65"/>
<polyline fill="none" stroke="black" points="215.25,-61 219.25,-61 219.25,-57 215.25,-57"/>
<polyline fill="none" stroke="black" points="215.25,-32 219.25,-32 219.25,-28 215.25,-28"/>
<text text-anchor="middle" x="254" y="-47.7" font-family="Times,serif" font-size="14.00">Edit</text>
<text text-anchor="middle" x="254" y="-31.2" font-family="Times,serif" font-size="14.00">(tools/Edit)</text>
</a>
</g>
</g>
<!-- mcp_server&#45;&gt;edit_tool -->
<g id="edge17" class="edge">
<title>mcp_server&#45;&gt;edit_tool</title>
<path fill="none" stroke="black" d="M495.54,-170.64C444.58,-159.55 362.76,-137.02 302,-97.5 292.29,-91.19 283.23,-82.47 275.64,-73.98"/>
<polygon fill="black" stroke="black" points="278.43,-71.85 269.3,-66.48 273.08,-76.37 278.43,-71.85"/>
<text text-anchor="middle" x="362.68" y="-108.7" font-family="Times,serif" font-size="14.00">invoke</text>
</g>
<!-- replace_tool -->
<g id="node17" class="node">
<title>replace_tool</title>
<g id="a_node17"><a xlink:title="Replace file contents">
<polygon fill="lightcoral" stroke="black" points="409.25,-65 310.75,-65 310.75,-61 306.75,-61 306.75,-57 310.75,-57 310.75,-32 306.75,-32 306.75,-28 310.75,-28 310.75,-24 409.25,-24 409.25,-65"/>
<polyline fill="none" stroke="black" points="310.75,-61 314.75,-61 314.75,-57 310.75,-57"/>
<polyline fill="none" stroke="black" points="310.75,-32 314.75,-32 314.75,-28 310.75,-28"/>
<text text-anchor="middle" x="360" y="-47.7" font-family="Times,serif" font-size="14.00">Replace</text>
<text text-anchor="middle" x="360" y="-31.2" font-family="Times,serif" font-size="14.00">(tools/Replace)</text>
</a>
</g>
</g>
<!-- mcp_server&#45;&gt;replace_tool -->
<g id="edge18" class="edge">
<title>mcp_server&#45;&gt;replace_tool</title>
<path fill="none" stroke="black" d="M506.18,-157.37C480.74,-141.61 446.49,-119.42 418,-97.5 408.17,-89.94 397.94,-81.12 388.86,-72.92"/>
<polygon fill="black" stroke="black" points="391.41,-70.51 381.67,-66.33 386.68,-75.67 391.41,-70.51"/>
<text text-anchor="middle" x="469.6" y="-108.7" font-family="Times,serif" font-size="14.00">invoke</text>
</g>
<!-- glob_tool -->
<g id="node18" class="node">
<title>glob_tool</title>
<g id="a_node18"><a xlink:title="Find files by pattern">
<polygon fill="lightcoral" stroke="black" points="534.75,-65 427.25,-65 427.25,-61 423.25,-61 423.25,-57 427.25,-57 427.25,-32 423.25,-32 423.25,-28 427.25,-28 427.25,-24 534.75,-24 534.75,-65"/>
<polyline fill="none" stroke="black" points="427.25,-61 431.25,-61 431.25,-57 427.25,-57"/>
<polyline fill="none" stroke="black" points="427.25,-32 431.25,-32 431.25,-28 427.25,-28"/>
<text text-anchor="middle" x="481" y="-47.7" font-family="Times,serif" font-size="14.00">GlobTool</text>
<text text-anchor="middle" x="481" y="-31.2" font-family="Times,serif" font-size="14.00">(tools/GlobTool)</text>
</a>
</g>
</g>
<!-- mcp_server&#45;&gt;glob_tool -->
<g id="edge19" class="edge">
<title>mcp_server&#45;&gt;glob_tool</title>
<path fill="none" stroke="black" d="M527.83,-146.71C517.82,-125.07 504.79,-96.92 495.02,-75.8"/>
<polygon fill="black" stroke="black" points="498.25,-74.45 490.88,-66.85 491.9,-77.39 498.25,-74.45"/>
<text text-anchor="middle" x="534.09" y="-108.7" font-family="Times,serif" font-size="14.00">invoke</text>
</g>
<!-- grep_tool -->
<g id="node19" class="node">
<title>grep_tool</title>
<g id="a_node19"><a xlink:title="Search file contents">
<polygon fill="lightcoral" stroke="black" points="660.75,-65 553.25,-65 553.25,-61 549.25,-61 549.25,-57 553.25,-57 553.25,-32 549.25,-32 549.25,-28 553.25,-28 553.25,-24 660.75,-24 660.75,-65"/>
<polyline fill="none" stroke="black" points="553.25,-61 557.25,-61 557.25,-57 553.25,-57"/>
<polyline fill="none" stroke="black" points="553.25,-32 557.25,-32 557.25,-28 553.25,-28"/>
<text text-anchor="middle" x="607" y="-47.7" font-family="Times,serif" font-size="14.00">GrepTool</text>
<text text-anchor="middle" x="607" y="-31.2" font-family="Times,serif" font-size="14.00">(tools/GrepTool)</text>
</a>
</g>
</g>
<!-- mcp_server&#45;&gt;grep_tool -->
<g id="edge20" class="edge">
<title>mcp_server&#45;&gt;grep_tool</title>
<path fill="none" stroke="black" d="M558.66,-146.71C568.99,-125.07 582.44,-96.92 592.53,-75.8"/>
<polygon fill="black" stroke="black" points="595.66,-77.37 596.81,-66.84 589.34,-74.35 595.66,-77.37"/>
<text text-anchor="middle" x="595.29" y="-108.7" font-family="Times,serif" font-size="14.00">invoke</text>
</g>
<!-- bash_tool -->
<g id="node20" class="node">
<title>bash_tool</title>
<g id="a_node20"><a xlink:title="Execute shell commands">
<polygon fill="orange" stroke="black" points="767,-65 685,-65 685,-61 681,-61 681,-57 685,-57 685,-32 681,-32 681,-28 685,-28 685,-24 767,-24 767,-65"/>
<polyline fill="none" stroke="black" points="685,-61 689,-61 689,-57 685,-57"/>
<polyline fill="none" stroke="black" points="685,-32 689,-32 689,-28 685,-28"/>
<text text-anchor="middle" x="726" y="-47.7" font-family="Times,serif" font-size="14.00">Bash</text>
<text text-anchor="middle" x="726" y="-31.2" font-family="Times,serif" font-size="14.00">(tools/Bash)</text>
</a>
</g>
</g>
<!-- mcp_server&#45;&gt;bash_tool -->
<g id="edge21" class="edge">
<title>mcp_server&#45;&gt;bash_tool</title>
<path fill="none" stroke="black" d="M580.55,-158.68C607.31,-143.18 643.6,-120.76 673,-97.5 682.25,-90.18 691.66,-81.45 699.93,-73.26"/>
<polygon fill="black" stroke="black" points="702.18,-75.96 706.71,-66.38 697.2,-71.04 702.18,-75.96"/>
<text text-anchor="middle" x="678.13" y="-108.7" font-family="Times,serif" font-size="14.00">invoke</text>
</g>
<!-- dispatch_agent -->
<g id="node21" class="node">
<title>dispatch_agent</title>
<g id="a_node21"><a xlink:title="Create sub&#45;agents">
<polygon fill="orange" stroke="black" points="921,-65 785,-65 785,-61 781,-61 781,-57 785,-57 785,-32 781,-32 781,-28 785,-28 785,-24 921,-24 921,-65"/>
<polyline fill="none" stroke="black" points="785,-61 789,-61 789,-57 785,-57"/>
<polyline fill="none" stroke="black" points="785,-32 789,-32 789,-28 785,-28"/>
<text text-anchor="middle" x="853" y="-47.7" font-family="Times,serif" font-size="14.00">dispatch_agent</text>
<text text-anchor="middle" x="853" y="-31.2" font-family="Times,serif" font-size="14.00">(tools/dispatch_agent)</text>
</a>
</g>
</g>
<!-- mcp_server&#45;&gt;dispatch_agent -->
<g id="edge22" class="edge">
<title>mcp_server&#45;&gt;dispatch_agent</title>
<path fill="none" stroke="black" d="M587.75,-167.45C635.7,-153.71 713.37,-129.01 776,-97.5 790.35,-90.28 805.19,-80.8 817.97,-71.92"/>
<polygon fill="black" stroke="black" points="819.94,-74.82 826.06,-66.17 815.88,-69.11 819.94,-74.82"/>
<text text-anchor="middle" x="776.36" y="-108.7" font-family="Times,serif" font-size="14.00">invoke</text>
</g>
<!-- imagen_tool -->
<g id="node22" class="node">
<title>imagen_tool</title>
<g id="a_node22"><a xlink:title="Generate images with Google Imagen">
<polygon fill="pink" stroke="black" points="1040.75,-65 945.25,-65 945.25,-61 941.25,-61 941.25,-57 945.25,-57 945.25,-32 941.25,-32 941.25,-28 945.25,-28 945.25,-24 1040.75,-24 1040.75,-65"/>
<polyline fill="none" stroke="black" points="945.25,-61 949.25,-61 949.25,-57 945.25,-57"/>
<polyline fill="none" stroke="black" points="945.25,-32 949.25,-32 949.25,-28 945.25,-28"/>
<text text-anchor="middle" x="993" y="-47.7" font-family="Times,serif" font-size="14.00">imagen</text>
<text text-anchor="middle" x="993" y="-31.2" font-family="Times,serif" font-size="14.00">(tools/imagen)</text>
</a>
</g>
</g>
<!-- mcp_server&#45;&gt;imagen_tool -->
<g id="edge23" class="edge">
<title>mcp_server&#45;&gt;imagen_tool</title>
<path fill="none" stroke="black" d="M595.57,-176.78C673.13,-171 821.13,-153.01 933,-97.5 945.32,-91.39 957.15,-82.14 967,-73.13"/>
<polygon fill="black" stroke="black" points="969.22,-75.85 974.02,-66.41 964.38,-70.8 969.22,-75.85"/>
<text text-anchor="middle" x="932.01" y="-108.7" font-family="Times,serif" font-size="14.00">invoke</text>
</g>
<!-- duckdb_tool -->
<g id="node23" class="node">
<title>duckdb_tool</title>
<g id="a_node23"><a xlink:title="SQL data processing">
<polygon fill="lightseagreen" stroke="black" points="1192.88,-65 1065.12,-65 1065.12,-61 1061.12,-61 1061.12,-57 1065.12,-57 1065.12,-32 1061.12,-32 1061.12,-28 1065.12,-28 1065.12,-24 1192.88,-24 1192.88,-65"/>
<polyline fill="none" stroke="black" points="1065.12,-61 1069.12,-61 1069.12,-57 1065.12,-57"/>
<polyline fill="none" stroke="black" points="1065.12,-32 1069.12,-32 1069.12,-28 1065.12,-28"/>
<text text-anchor="middle" x="1129" y="-47.7" font-family="Times,serif" font-size="14.00">duckdbserver</text>
<text text-anchor="middle" x="1129" y="-31.2" font-family="Times,serif" font-size="14.00">(tools/duckdbserver)</text>
</a>
</g>
</g>
<!-- mcp_server&#45;&gt;duckdb_tool -->
<g id="edge24" class="edge">
<title>mcp_server&#45;&gt;duckdb_tool</title>
<path fill="none" stroke="black" d="M598.11,-179.81C694.6,-178.44 898.54,-166.73 1053,-97.5 1067.76,-90.88 1082.73,-81.37 1095.44,-72.29"/>
<polygon fill="black" stroke="black" points="1097.48,-75.13 1103.45,-66.38 1093.33,-69.5 1097.48,-75.13"/>
<text text-anchor="middle" x="1045.82" y="-108.7" font-family="Times,serif" font-size="14.00">invoke</text>
</g>
<!-- note -->
<g id="node24" class="node">
<title>note</title>
<polygon fill="white" stroke="black" points="1402.62,-392.46 1333.38,-392.46 1333.38,-318.46 1408.62,-318.46 1408.62,-386.46 1402.62,-392.46"/>
<polyline fill="none" stroke="black" points="1402.62,-392.46 1402.62,-386.46"/>
<polyline fill="none" stroke="black" points="1408.62,-386.46 1402.62,-386.46"/>
<text text-anchor="middle" x="1371" y="-375.16" font-family="Times,serif" font-size="14.00">Generative</text>
<text text-anchor="middle" x="1371" y="-358.66" font-family="Times,serif" font-size="14.00">model can</text>
<text text-anchor="middle" x="1371" y="-342.16" font-family="Times,serif" font-size="14.00">generate</text>
<text text-anchor="middle" x="1371" y="-325.66" font-family="Times,serif" font-size="14.00">text</text>
</g>
<!-- note&#45;&gt;llm -->
</g>
</svg>
