<svg xmlns="http://www.w3.org/2000/svg" xmlns:xlink="http://www.w3.org/1999/xlink" width="1283pt" height="1084pt" viewBox="0.00 0.00 1282.70 1084.39">
<g id="graph0" class="graph" transform="scale(1 1) rotate(0) translate(4 1080.39)">
<title>chat_architecture</title>
<polygon fill="white" stroke="none" points="-4,4 -4,-1080.39 1278.7,-1080.39 1278.7,4 -4,4"/>
<g id="clust1" class="cluster">
<title>cluster_user</title>
<polygon fill="none" stroke="black" stroke-dasharray="5,2" points="731,-907.39 731,-1068.39 801,-1068.39 801,-907.39 731,-907.39"/>
<text text-anchor="middle" x="766" y="-1051.79" font-family="Times,serif" font-size="14.00">User</text>
</g>
<g id="clust3" class="cluster">
<title>cluster_frontend</title>
<polygon fill="none" stroke="black" stroke-dasharray="5,2" points="684,-747.06 684,-872.59 848,-872.59 848,-747.06 684,-747.06"/>
<text text-anchor="middle" x="766" y="-855.99" font-family="Times,serif" font-size="14.00">Frontend (BIG-AGI)</text>
<text text-anchor="middle" x="766" y="-839.19" font-family="Times,serif" font-size="14.00">(out of scope)</text>
</g>
<g id="clust4" class="cluster">
<title>cluster_backend</title>
<polygon fill="none" stroke="black" stroke-dasharray="5,2" points="299,-305.09 299,-712.26 1187,-712.26 1187,-305.09 299,-305.09"/>
<text text-anchor="middle" x="743" y="-695.66" font-family="Times,serif" font-size="14.00">MCP Host (Backend)</text>
<text text-anchor="middle" x="743" y="-678.86" font-family="Times,serif" font-size="14.00">host/openaiserver</text>
</g>
<g id="clust5" class="cluster">
<title>cluster_mcp</title>
<polygon fill="none" stroke="black" stroke-dasharray="5,2" points="307,-313.09 307,-429.09 481,-429.09 481,-313.09 307,-313.09"/>
<text text-anchor="middle" x="394" y="-412.49" font-family="Times,serif" font-size="14.00">MCP Client</text>
</g>
<g id="clust6" class="cluster">
<title>cluster_gcp</title>
<polygon fill="none" stroke="black" stroke-dasharray="5,2" points="1094,-132.68 1094,-272.29 1262,-272.29 1262,-132.68 1094,-132.68"/>
<text text-anchor="middle" x="1178" y="-255.69" font-family="Times,serif" font-size="14.00">GCP PRIVATE PROJECT</text>
<text text-anchor="middle" x="1178" y="-238.89" font-family="Times,serif" font-size="14.00">TENANT</text>
</g>
<g id="clust7" class="cluster">
<title>cluster_environment</title>
<polygon fill="none" stroke="black" stroke-dasharray="5,2" points="8,-8 8,-268.08 698,-268.08 698,-8 8,-8"/>
<text text-anchor="middle" x="353" y="-251.48" font-family="Times,serif" font-size="14.00">ENVIRONMENT</text>
</g>
<g id="clust8" class="cluster">
<title>cluster_samplehttpserver</title>
<polygon fill="none" stroke="black" stroke-dasharray="5,2" points="16,-16 16,-235.28 270,-235.28 270,-16 16,-16"/>
<text text-anchor="middle" x="143" y="-218.68" font-family="Times,serif" font-size="14.00">samplehttpserver</text>
</g>
<!-- user -->
<g id="node1" class="node">
<title>user</title>
<path fill="lightblue" stroke="none" d="M781,-1035.59C781,-1035.59 751,-1035.59 751,-1035.59 745,-1035.59 739,-1029.59 739,-1023.59 739,-1023.59 739,-1005.99 739,-1005.99 739,-999.99 745,-993.99 751,-993.99 751,-993.99 781,-993.99 781,-993.99 787,-993.99 793,-999.99 793,-1005.99 793,-1005.99 793,-1023.59 793,-1023.59 793,-1029.59 787,-1035.59 781,-1035.59"/>
<text text-anchor="middle" x="766" y="-1018.99" font-family="Times,serif" font-size="14.00">Chat</text>
<text text-anchor="middle" x="766" y="-1002.19" font-family="Times,serif" font-size="14.00">👤</text>
</g>
<!-- ui -->
<g id="node2" class="node">
<title>ui</title>
<g id="a_node2"><a xlink:title="Web/Mobile App">
<path fill="lightblue" stroke="black" d="M781,-956.99C781,-956.99 751,-956.99 751,-956.99 745,-956.99 739,-950.99 739,-944.99 739,-944.99 739,-927.39 739,-927.39 739,-921.39 745,-915.39 751,-915.39 751,-915.39 781,-915.39 781,-915.39 787,-915.39 793,-921.39 793,-927.39 793,-927.39 793,-944.99 793,-944.99 793,-950.99 787,-956.99 781,-956.99"/>
<text text-anchor="middle" x="766" y="-940.39" font-family="Times,serif" font-size="14.00">UI</text>
<text text-anchor="middle" x="766" y="-923.59" font-family="Times,serif" font-size="14.00">💻</text>
</a>
</g>
</g>
<!-- user&#45;&gt;ui -->
<g id="edge1" class="edge">
<title>user-&gt;ui</title>
<path fill="none" stroke="black" d="M766,-994.06C766,-986.32 766,-977.25 766,-968.65"/>
<polygon fill="black" stroke="black" points="769.5,-968.9 766,-958.9 762.5,-968.9 769.5,-968.9"/>
</g>
<!-- frontend -->
<g id="node3" class="node">
<title>frontend</title>
<g id="a_node3"><a xlink:title="Handles user input and displays responses">
<path fill="lightyellow" stroke="black" d="M831.19,-797.14C831.19,-797.14 811.86,-814.88 811.86,-814.88 807.44,-818.93 797.02,-822.99 791.02,-822.99 791.02,-822.99 740.98,-822.99 740.98,-822.99 734.98,-822.99 724.56,-818.93 720.14,-814.88 720.14,-814.88 700.81,-797.14 700.81,-797.14 696.39,-793.08 696.39,-784.97 700.81,-780.91 700.81,-780.91 720.14,-763.17 720.14,-763.17 724.56,-759.11 734.98,-755.06 740.98,-755.06 740.98,-755.06 791.02,-755.06 791.02,-755.06 797.02,-755.06 807.44,-759.11 811.86,-763.17 811.86,-763.17 831.19,-780.91 831.19,-780.91 835.61,-784.97 835.61,-793.08 831.19,-797.14"/>
<text text-anchor="middle" x="766" y="-793.22" font-family="Times,serif" font-size="14.00">FRONTEND</text>
<text text-anchor="middle" x="766" y="-776.42" font-family="Times,serif" font-size="14.00">BIG-AGI</text>
</a>
</g>
</g>
<!-- ui&#45;&gt;frontend -->
<g id="edge2" class="edge">
<title>ui-&gt;frontend</title>
<path fill="none" stroke="black" d="M766,-915.01C766,-894.37 766,-861.65 766,-834.86"/>
<polygon fill="black" stroke="black" points="769.5,-834.93 766,-824.93 762.5,-834.93 769.5,-834.93"/>
<text text-anchor="middle" x="783.5" y="-884.79" font-family="Times,serif" font-size="14.00">HTTP</text>
</g>
<!-- api_gateway -->
<g id="node4" class="node">
<title>api_gateway</title>
<g id="a_node4"><a xlink:title="Receives requests from frontend">
<path fill="lightgreen" stroke="black" d="M802.03,-662.66C802.03,-662.66 729.97,-662.66 729.97,-662.66 723.97,-662.66 717.97,-656.66 717.97,-650.66 717.97,-650.66 717.97,-633.06 717.97,-633.06 717.97,-627.06 723.97,-621.06 729.97,-621.06 729.97,-621.06 802.03,-621.06 802.03,-621.06 808.03,-621.06 814.03,-627.06 814.03,-633.06 814.03,-633.06 814.03,-650.66 814.03,-650.66 814.03,-656.66 808.03,-662.66 802.03,-662.66"/>
<text text-anchor="middle" x="766" y="-646.06" font-family="Times,serif" font-size="14.00">API Gateway</text>
<text text-anchor="middle" x="766" y="-629.26" font-family="Times,serif" font-size="14.00">(api_gateway)</text>
</a>
</g>
</g>
<!-- frontend&#45;&gt;api_gateway -->
<g id="edge3" class="edge">
<title>frontend-&gt;api_gateway</title>
<path fill="none" stroke="black" d="M766,-754.72C766,-730.52 766,-697.97 766,-674.23"/>
<polygon fill="black" stroke="black" points="769.5,-674.55 766,-664.55 762.5,-674.55 769.5,-674.55"/>
<text text-anchor="middle" x="862.83" y="-724.46" font-family="Times,serif" font-size="14.00">HTTP POST /v1/chat/completions</text>
</g>
<!-- chat_handler -->
<g id="node5" class="node">
<title>chat_handler</title>
<g id="a_node5"><a xlink:title="Manages chat sessions, history, and orchestrates interactions">
<path fill="lightyellow" stroke="black" d="M831.19,-545.93C831.19,-545.93 809.48,-574.5 809.48,-574.5 805.85,-579.28 796.22,-584.06 790.22,-584.06 790.22,-584.06 741.78,-584.06 741.78,-584.06 735.78,-584.06 726.15,-579.28 722.52,-574.5 722.52,-574.5 700.81,-545.93 700.81,-545.93 697.18,-541.15 697.18,-531.6 700.81,-526.82 700.81,-526.82 722.52,-498.25 722.52,-498.25 726.15,-493.47 735.78,-488.69 741.78,-488.69 741.78,-488.69 790.22,-488.69 790.22,-488.69 796.22,-488.69 805.85,-493.47 809.48,-498.25 809.48,-498.25 831.19,-526.82 831.19,-526.82 834.82,-531.6 834.82,-541.15 831.19,-545.93"/>
<text text-anchor="middle" x="766" y="-548.97" font-family="Times,serif" font-size="14.00">Chat Session</text>
<text text-anchor="middle" x="766" y="-532.17" font-family="Times,serif" font-size="14.00">Handler</text>
<text text-anchor="middle" x="766" y="-515.37" font-family="Times,serif" font-size="14.00">(chat.go)</text>
</a>
</g>
</g>
<!-- api_gateway&#45;&gt;chat_handler -->
<g id="edge4" class="edge">
<title>api_gateway-&gt;chat_handler</title>
<path fill="none" stroke="black" d="M766,-620.9C766,-613.55 766,-604.81 766,-595.78"/>
<polygon fill="black" stroke="black" points="769.5,-595.8 766,-585.8 762.5,-595.8 769.5,-595.8"/>
</g>
<!-- vertex_sdk -->
<g id="node6" class="node">
<title>vertex_sdk</title>
<g id="a_node6"><a xlink:title="Connects to and interacts with the LLM">
<path fill="lightgreen" stroke="black" d="M1167.5,-379.49C1167.5,-379.49 1070.5,-379.49 1070.5,-379.49 1064.5,-379.49 1058.5,-373.49 1058.5,-367.49 1058.5,-367.49 1058.5,-349.89 1058.5,-349.89 1058.5,-343.89 1064.5,-337.89 1070.5,-337.89 1070.5,-337.89 1167.5,-337.89 1167.5,-337.89 1173.5,-337.89 1179.5,-343.89 1179.5,-349.89 1179.5,-349.89 1179.5,-367.49 1179.5,-367.49 1179.5,-373.49 1173.5,-379.49 1167.5,-379.49"/>
<text text-anchor="middle" x="1119" y="-362.89" font-family="Times,serif" font-size="14.00">VERTEX AI SDK</text>
<text text-anchor="middle" x="1119" y="-346.09" font-family="Times,serif" font-size="14.00">(vertex.go)</text>
</a>
</g>
</g>
<!-- chat_handler&#45;&gt;vertex_sdk -->
<g id="edge5" class="edge">
<title>chat_handler-&gt;vertex_sdk</title>
<path fill="none" stroke="black" d="M832.47,-528.04C884.49,-520.01 957.14,-503.59 1013,-470.69 1048.22,-449.95 1079.29,-414.21 1098.54,-388.89"/>
<polygon fill="black" stroke="black" points="1101.27,-391.08 1104.42,-380.97 1095.65,-386.91 1101.27,-391.08"/>
</g>
<!-- db -->
<g id="node7" class="node">
<title>db</title>
<g id="a_node7"><a xlink:title="Stores chat history and other data">
<path fill="lightgrey" stroke="black" d="M614.84,-382.09C614.84,-384.96 587.12,-387.29 553,-387.29 518.88,-387.29 491.16,-384.96 491.16,-382.09 491.16,-382.09 491.16,-335.29 491.16,-335.29 491.16,-332.42 518.88,-330.09 553,-330.09 587.12,-330.09 614.84,-332.42 614.84,-335.29 614.84,-335.29 614.84,-382.09 614.84,-382.09"/>
<path fill="none" stroke="black" d="M614.84,-382.09C614.84,-379.22 587.12,-376.89 553,-376.89 518.88,-376.89 491.16,-379.22 491.16,-382.09"/>
<text text-anchor="middle" x="553" y="-362.89" font-family="Times,serif" font-size="14.00">Data Storage</text>
<text text-anchor="middle" x="553" y="-346.09" font-family="Times,serif" font-size="14.00">(Not Implemented)</text>
</a>
</g>
</g>
<!-- chat_handler&#45;&gt;db -->
<g id="edge11" class="edge">
<title>chat_handler-&gt;db</title>
<path fill="none" stroke="black" stroke-dasharray="5,2" d="M709.59,-514.59C685.05,-503.85 656.94,-489.09 634.95,-470.69 610.35,-450.11 589.07,-420.7 574.36,-397.32"/>
<polygon fill="black" stroke="black" points="577.47,-395.7 569.26,-389.01 571.51,-399.36 577.47,-395.7"/>
<text text-anchor="middle" x="672.47" y="-449.69" font-family="Times,serif" font-size="14.00">Store History</text>
</g>
<!-- error_handler -->
<g id="node8" class="node">
<title>error_handler</title>
<g id="a_node8"><a xlink:title="Handles errors and exceptions">
<polygon fill="lightgrey" stroke="black" points="756.84,-379.49 633.16,-379.49 633.16,-375.49 629.16,-375.49 629.16,-371.49 633.16,-371.49 633.16,-345.89 629.16,-345.89 629.16,-341.89 633.16,-341.89 633.16,-337.89 756.84,-337.89 756.84,-379.49"/>
<polyline fill="none" stroke="black" points="633.16,-375.49 637.16,-375.49 637.16,-371.49 633.16,-371.49"/>
<polyline fill="none" stroke="black" points="633.16,-345.89 637.16,-345.89 637.16,-341.89 633.16,-341.89"/>
<text text-anchor="middle" x="695" y="-362.89" font-family="Times,serif" font-size="14.00">Error Handler</text>
<text text-anchor="middle" x="695" y="-346.09" font-family="Times,serif" font-size="14.00">(Not Implemented)</text>
</a>
</g>
</g>
<!-- chat_handler&#45;&gt;error_handler -->
<g id="edge12" class="edge">
<title>chat_handler-&gt;error_handler</title>
<path fill="none" stroke="black" stroke-dasharray="5,2" d="M735,-488.51C731.74,-482.64 728.68,-476.61 726.09,-470.69 714.73,-444.78 706.44,-413.64 701.29,-390.95"/>
<polygon fill="black" stroke="black" points="704.76,-390.42 699.2,-381.4 697.92,-391.91 704.76,-390.42"/>
<text text-anchor="middle" x="765.54" y="-449.69" font-family="Times,serif" font-size="14.00">Handle Errors</text>
</g>
<!-- monitoring -->
<g id="node9" class="node">
<title>monitoring</title>
<g id="a_node9"><a xlink:title="Collects metrics and logs">
<polygon fill="lightgrey" stroke="black" points="898.84,-379.49 775.16,-379.49 775.16,-375.49 771.16,-375.49 771.16,-371.49 775.16,-371.49 775.16,-345.89 771.16,-345.89 771.16,-341.89 775.16,-341.89 775.16,-337.89 898.84,-337.89 898.84,-379.49"/>
<polyline fill="none" stroke="black" points="775.16,-375.49 779.16,-375.49 779.16,-371.49 775.16,-371.49"/>
<polyline fill="none" stroke="black" points="775.16,-345.89 779.16,-345.89 779.16,-341.89 775.16,-341.89"/>
<text text-anchor="middle" x="837" y="-362.89" font-family="Times,serif" font-size="14.00">Monitoring</text>
<text text-anchor="middle" x="837" y="-346.09" font-family="Times,serif" font-size="14.00">(Not Implemented)</text>
</a>
</g>
</g>
<!-- chat_handler&#45;&gt;monitoring -->
<g id="edge13" class="edge">
<title>chat_handler-&gt;monitoring</title>
<path fill="none" stroke="black" stroke-dasharray="5,2" d="M796.22,-488.44C799.41,-482.58 802.43,-476.58 805,-470.69 816.34,-444.71 824.92,-413.58 830.32,-390.9"/>
<polygon fill="black" stroke="black" points="833.68,-391.89 832.52,-381.36 826.86,-390.32 833.68,-391.89"/>
<text text-anchor="middle" x="860.56" y="-449.69" font-family="Times,serif" font-size="14.00">Collect Metrics</text>
</g>
<!-- logging -->
<g id="node10" class="node">
<title>logging</title>
<g id="a_node10"><a xlink:title="Logs application events">
<polygon fill="lightgrey" stroke="black" points="1040.84,-379.49 917.16,-379.49 917.16,-375.49 913.16,-375.49 913.16,-371.49 917.16,-371.49 917.16,-345.89 913.16,-345.89 913.16,-341.89 917.16,-341.89 917.16,-337.89 1040.84,-337.89 1040.84,-379.49"/>
<polyline fill="none" stroke="black" points="917.16,-375.49 921.16,-375.49 921.16,-371.49 917.16,-371.49"/>
<polyline fill="none" stroke="black" points="917.16,-345.89 921.16,-345.89 921.16,-341.89 917.16,-341.89"/>
<text text-anchor="middle" x="979" y="-362.89" font-family="Times,serif" font-size="14.00">Logging</text>
<text text-anchor="middle" x="979" y="-346.09" font-family="Times,serif" font-size="14.00">(Not Implemented)</text>
</a>
</g>
</g>
<!-- chat_handler&#45;&gt;logging -->
<g id="edge14" class="edge">
<title>chat_handler-&gt;logging</title>
<path fill="none" stroke="black" stroke-dasharray="5,2" d="M824.6,-517.38C852.07,-506.89 883.96,-491.55 908,-470.69 933.74,-448.36 953.56,-414.44 965.64,-389.97"/>
<polygon fill="black" stroke="black" points="968.7,-391.7 969.84,-381.16 962.38,-388.69 968.7,-391.7"/>
<text text-anchor="middle" x="972.67" y="-449.69" font-family="Times,serif" font-size="14.00">Collect Logs</text>
</g>
<!-- mcp_protocol -->
<g id="node11" class="node">
<title>mcp_protocol</title>
<g id="a_node11"><a xlink:title="Communicates with the external environment">
<path fill="lightgreen" stroke="black" d="M461.34,-396.29C461.34,-396.29 326.66,-396.29 326.66,-396.29 320.66,-396.29 314.66,-390.29 314.66,-384.29 314.66,-384.29 314.66,-333.09 314.66,-333.09 314.66,-327.09 320.66,-321.09 326.66,-321.09 326.66,-321.09 461.34,-321.09 461.34,-321.09 467.34,-321.09 473.34,-327.09 473.34,-333.09 473.34,-333.09 473.34,-384.29 473.34,-384.29 473.34,-390.29 467.34,-396.29 461.34,-396.29"/>
<text text-anchor="middle" x="394" y="-379.69" font-family="Times,serif" font-size="14.00">MCP</text>
<text text-anchor="middle" x="394" y="-362.89" font-family="Times,serif" font-size="14.00">JSON RPC</text>
<text text-anchor="middle" x="394" y="-346.09" font-family="Times,serif" font-size="14.00">SSE</text>
<text text-anchor="middle" x="394" y="-329.29" font-family="Times,serif" font-size="14.00">(function_client_mcp.go)</text>
</a>
</g>
</g>
<!-- chat_handler&#45;&gt;mcp_protocol -->
<g id="edge7" class="edge">
<title>chat_handler-&gt;mcp_protocol</title>
<g id="a_edge7"><a xlink:title="Registers and calls specific functions">
<path fill="none" stroke="black" d="M698.98,-528.54C618.16,-519.13 488.36,-499.97 450.04,-470.69 429.56,-455.03 415.99,-429.82 407.34,-407.38"/>
<polygon fill="black" stroke="black" points="410.67,-406.29 403.99,-398.06 404.08,-408.65 410.67,-406.29"/>
</a>
</g>
<text text-anchor="middle" x="524.52" y="-458.09" font-family="Times,serif" font-size="14.00">REGISTER FUNCTIONS</text>
<text text-anchor="middle" x="524.52" y="-441.29" font-family="Times,serif" font-size="14.00">CALL FUNCTIONS</text>
</g>
<!-- llm -->
<g id="node12" class="node">
<title>llm</title>
<g id="a_node12"><a xlink:title="Large Language Model">
<ellipse fill="lightgrey" stroke="black" cx="1178" cy="-181.68" rx="41.01" ry="41.01"/>
<text text-anchor="middle" x="1178" y="-185.88" font-family="Times,serif" font-size="14.00">LLM</text>
<text text-anchor="middle" x="1178" y="-169.08" font-family="Times,serif" font-size="14.00">Gemini</text>
</a>
</g>
</g>
<!-- vertex_sdk&#45;&gt;llm -->
<g id="edge6" class="edge">
<title>vertex_sdk-&gt;llm</title>
<path fill="none" stroke="black" d="M1125.77,-337.62C1134.44,-311.9 1149.75,-266.48 1161.56,-231.45"/>
<polygon fill="black" stroke="black" points="1164.74,-232.97 1164.62,-222.38 1158.11,-230.73 1164.74,-232.97"/>
<text text-anchor="middle" x="1161.7" y="-284.49" font-family="Times,serif" font-size="14.00">gRPC</text>
</g>
<!-- mcp_server -->
<g id="node13" class="node">
<title>mcp_server</title>
<g id="a_node13"><a xlink:title="Executes actions and reads resources">
<path fill="lightyellow" stroke="black" d="M500.35,-189.32C500.35,-189.32 461.06,-221.73 461.06,-221.73 456.43,-225.55 445.8,-229.37 439.8,-229.37 439.8,-229.37 348.2,-229.37 348.2,-229.37 342.2,-229.37 331.57,-225.55 326.94,-221.73 326.94,-221.73 287.65,-189.32 287.65,-189.32 283.03,-185.5 283.03,-177.87 287.65,-174.05 287.65,-174.05 326.94,-141.64 326.94,-141.64 331.57,-137.82 342.2,-134 348.2,-134 348.2,-134 439.8,-134 439.8,-134 445.8,-134 456.43,-137.82 461.06,-141.64 461.06,-141.64 500.35,-174.05 500.35,-174.05 504.97,-177.87 504.97,-185.5 500.35,-189.32"/>
<text text-anchor="middle" x="394" y="-194.28" font-family="Times,serif" font-size="14.00">MCP</text>
<text text-anchor="middle" x="394" y="-177.48" font-family="Times,serif" font-size="14.00">SERVER</text>
<text text-anchor="middle" x="394" y="-160.68" font-family="Times,serif" font-size="14.00">(servers/logs/main.go)</text>
</a>
</g>
</g>
<!-- mcp_protocol&#45;&gt;mcp_server -->
<g id="edge8" class="edge">
<title>mcp_protocol-&gt;mcp_server</title>
<path fill="none" stroke="black" d="M394,-321C394,-297.87 394,-267.48 394,-241.08"/>
<polygon fill="black" stroke="black" points="397.5,-241.17 394,-231.17 390.5,-241.17 397.5,-241.17"/>
<text text-anchor="middle" x="414.61" y="-284.49" font-family="Times,serif" font-size="14.00">STDIO</text>
</g>
<!-- mcp_server&#45;&gt;mcp_server -->
<g id="edge9" class="edge">
<title>mcp_server-&gt;mcp_server</title>
<g id="a_edge9"><a xlink:title="Reads resources from the environment">
<path fill="none" stroke="black" d="M514.05,-186.75C522.47,-185.6 527.6,-183.91 527.6,-181.68 527.6,-179.46 522.47,-177.77 514.05,-176.62"/>
<polygon fill="black" stroke="black" points="513.89,-183.25 504.28,-187.71 514.58,-190.22 513.89,-183.25"/>
<polygon fill="black" stroke="black" points="514.58,-173.15 504.28,-175.65 513.89,-180.12 514.58,-173.15"/>
</a>
</g>
<text text-anchor="middle" x="568.06" y="-185.88" font-family="Times,serif" font-size="14.00">READ</text>
<text text-anchor="middle" x="568.06" y="-169.08" font-family="Times,serif" font-size="14.00">RESOURCES</text>
</g>
<!-- mcp_server&#45;&gt;mcp_server -->
<g id="edge10" class="edge">
<title>mcp_server-&gt;mcp_server</title>
<g id="a_edge10"><a xlink:title="Executes actions in the environment">
<path fill="none" stroke="black" d="M505.4,-195.43C558.62,-196.48 608.51,-191.9 608.51,-181.68 608.51,-171.47 558.62,-166.89 505.4,-167.94"/>
<polygon fill="black" stroke="black" points="505.61,-191.93 495.52,-195.16 505.42,-198.93 505.61,-191.93"/>
<polygon fill="black" stroke="black" points="505.42,-164.44 495.52,-168.21 505.61,-171.44 505.42,-164.44"/>
</a>
</g>
<text text-anchor="middle" x="640.4" y="-185.88" font-family="Times,serif" font-size="14.00">EXECUTE</text>
<text text-anchor="middle" x="640.4" y="-169.08" font-family="Times,serif" font-size="14.00">ACTIONS</text>
</g>
<!-- access_log -->
<g id="node15" class="node">
<title>access_log</title>
<g id="a_node15"><a xlink:title="Example log file">
<path fill="lightgrey" stroke="black" d="M262.37,-76C262.37,-78.87 208.87,-81.2 143,-81.2 77.13,-81.2 23.63,-78.87 23.63,-76 23.63,-76 23.63,-29.2 23.63,-29.2 23.63,-26.33 77.13,-24 143,-24 208.87,-24 262.37,-26.33 262.37,-29.2 262.37,-29.2 262.37,-76 262.37,-76"/>
<path fill="none" stroke="black" d="M262.37,-76C262.37,-73.13 208.87,-70.8 143,-70.8 77.13,-70.8 23.63,-73.13 23.63,-76"/>
<text text-anchor="middle" x="143" y="-56.8" font-family="Times,serif" font-size="14.00">access.log</text>
<text text-anchor="middle" x="143" y="-40" font-family="Times,serif" font-size="14.00">(examples/samplehttpserver/access.log)</text>
</a>
</g>
</g>
<!-- mcp_server&#45;&gt;access_log -->
<g id="edge15" class="edge">
<title>mcp_server-&gt;access_log</title>
<path fill="none" stroke="black" d="M322.74,-144.61C286.86,-126.44 243.66,-104.56 208.6,-86.81"/>
<polygon fill="black" stroke="black" points="210.32,-83.76 199.82,-82.37 207.16,-90.01 210.32,-83.76"/>
<text text-anchor="middle" x="273.02" y="-103.4" font-family="Times,serif" font-size="14.00">read</text>
</g>
<!-- samplehttpserver -->
<g id="node14" class="node">
<title>samplehttpserver</title>
<g id="a_node14"><a xlink:title="Generates sample HTTP logs">
<polygon fill="lightgrey" stroke="black" points="256.55,-202.48 29.45,-202.48 29.45,-198.48 25.45,-198.48 25.45,-194.48 29.45,-194.48 29.45,-168.88 25.45,-168.88 25.45,-164.88 29.45,-164.88 29.45,-160.88 256.55,-160.88 256.55,-202.48"/>
<polyline fill="none" stroke="black" points="29.45,-198.48 33.45,-198.48 33.45,-194.48 29.45,-194.48"/>
<polyline fill="none" stroke="black" points="29.45,-168.88 33.45,-168.88 33.45,-164.88 29.45,-164.88"/>
<text text-anchor="middle" x="143" y="-185.88" font-family="Times,serif" font-size="14.00">HTTP Server</text>
<text text-anchor="middle" x="143" y="-169.08" font-family="Times,serif" font-size="14.00">(examples/samplehttpserver/main.go)</text>
</a>
</g>
</g>
<!-- samplehttpserver&#45;&gt;access_log -->
<g id="edge16" class="edge">
<title>samplehttpserver-&gt;access_log</title>
<path fill="none" stroke="black" d="M133.57,-160.67C126.99,-144.22 120.07,-120.28 124.23,-99.2 124.69,-96.9 125.26,-94.58 125.92,-92.25"/>
<polygon fill="black" stroke="black" points="129.17,-93.56 129.04,-82.96 122.54,-91.33 129.17,-93.56"/>
<text text-anchor="middle" x="138.62" y="-103.4" font-family="Times,serif" font-size="14.00">write</text>
</g>
<!-- note -->
<g id="node16" class="node">
<title>note</title>
<polygon fill="white" stroke="black" points="1268.7,-396.29 1197.3,-396.29 1197.3,-321.09 1274.7,-321.09 1274.7,-390.29 1268.7,-396.29"/>
<polyline fill="none" stroke="black" points="1268.7,-396.29 1268.7,-390.29"/>
<polyline fill="none" stroke="black" points="1274.7,-390.29 1268.7,-390.29"/>
<text text-anchor="middle" x="1236" y="-379.69" font-family="Times,serif" font-size="14.00">Generative</text>
<text text-anchor="middle" x="1236" y="-362.89" font-family="Times,serif" font-size="14.00">model can</text>
<text text-anchor="middle" x="1236" y="-346.09" font-family="Times,serif" font-size="14.00">generate</text>
<text text-anchor="middle" x="1236" y="-329.29" font-family="Times,serif" font-size="14.00">text</text>
</g>
<!-- note&#45;&gt;llm -->
</g>
</svg>
